<svg fill="#000"  xmlns="http://www.w3.org/2000/svg" viewBox="0.98 0.87 40.64 40.64">   <path d="M34.7468 13.4565L34.7468 12.2493L33.8932 13.1029L6.92151 40.0756C5.67673 41.3204 3.65849 41.3205 2.41366 40.0757C1.16883 38.8309 1.1688 36.8127 2.41358 35.5678L29.3853 8.59515L30.2388 7.74158L29.0317 7.7416L4.74644 7.74204C2.98602 7.74207 1.55889 6.31499 1.55886 4.55456C1.55883 2.79414 2.98591 1.36701 4.74633 1.36697L37.9341 1.36638C39.6945 1.36634 41.1217 2.79342 41.1217 4.55385L41.1223 37.7416C41.1223 39.5021 39.6953 40.9292 37.9348 40.9292C36.1744 40.9292 34.7473 39.5022 34.7472 37.7417L34.7468 13.4565Z"></path> </svg>