<svg xmlns="http://www.w3.org/2000/svg" version="1.1" viewBox="6.25 18.75 87.5 62.5">  <path d="m16.25 25-5.9062-4.5938c1.5508-1.0742 3.3945-1.6523 5.2812-1.6562h68.75c1.8867 0.003906 3.7305 0.58203 5.2812 1.6562l-5.875 4.5938-32.438 25.25c-0.90625 0.84375-1.7812 0.84375-2.9062-0.15625zm77.062 0.46875-5.8125 4.5312-32.125 25.031c-1.4375 1.3594-3.3359 2.1172-5.3125 2.125-2.1094-0.023438-4.1328-0.85156-5.6562-2.3125l-31.906-24.844-5.8125-4.5312c-0.27344 0.85938-0.42188 1.7539-0.4375 2.6562v43.75c0.015625 5.1719 4.2031 9.3594 9.375 9.375h68.75c5.1719-0.015625 9.3594-4.2031 9.375-9.375v-43.75c-0.015625-0.90234-0.16406-1.7969-0.4375-2.6562z"></path> </svg>