<svg xmlns="http://www.w3.org/2000/svg" xmlns:xlink="http://www.w3.org/1999/xlink" fill="none" stroke="#414651" viewBox="0.5 0.5 27 27"><defs><clipPath id="clip5_14842">			<rect id="mail-01" rx="0.000000" width="27.000000" height="27.000000" transform="translate(0.500000 0.500000)" fill="white" fill-opacity="0"></rect>		</clipPath>	</defs>	<g clip-path="url(#clip5_14842)">		<path id="Icon" d="M20.06 4.66C22.02 4.66 23 4.66 23.75 5.04C24.41 5.38 24.95 5.91 25.28 6.57C25.66 7.32 25.66 8.3 25.66 10.26L25.66 17.73C25.66 19.69 25.66 20.67 25.28 21.42C24.95 22.08 24.41 22.61 23.75 22.95C23 23.33 22.02 23.33 20.06 23.33L7.93 23.33C5.97 23.33 4.99 23.33 4.24 22.95C3.58 22.61 3.05 22.08 2.71 21.42C2.33 20.67 2.33 19.69 2.33 17.73L2.33 10.26C2.33 8.3 2.33 7.32 2.71 6.57C3.05 5.91 3.58 5.38 4.24 5.04C4.99 4.66 5.97 4.66 7.93 4.66L20.06 4.66ZM2.33 8.16L11.85 14.83C12.63 15.37 13.01 15.64 13.43 15.74C13.8 15.84 14.19 15.84 14.56 15.74C14.98 15.64 15.37 15.37 16.14 14.83L25.66 8.16"  stroke-opacity="1.000000" stroke-width="2.000000" stroke-linejoin="round" stroke-linecap="round"></path>	</g></svg>