<svg xmlns="http://www.w3.org/2000/svg" version="1.1" viewBox="12.47 12.47 75.06 75.05">  <path d="m12.484 32.73c-0.47266-8.5312 11.535-25.57 16.246-18.641 0.015625 0.019531 0.027343 0.039062 0.039062 0.058594l9.8242 15.809c0.12891 0.21094 1.0703 2 1.1172 2.2422 0.76172 4.0547-3.2539 7.9336-6.3008 12.41-0.38281 0.5625-0.71484 1.4961-0.37891 2.0859 2.7227 4.7461 5.1758 7.6602 8.8945 11.379s6.6328 6.1719 11.379 8.8945c0.58984 0.33984 1.5234 0.003906 2.0859-0.37891 4.4766-3.043 8.3594-7.0625 12.41-6.3008 0.24219 0.046876 2.0352 0.98438 2.2422 1.1172l15.809 9.8242c0.023438 0.011719 0.039063 0.023437 0.058594 0.039062 6.9297 4.7109-10.109 16.719-18.641 16.242-12.352-0.6875-25.703-8.207-36.141-18.645-10.438-10.43-17.957-23.781-18.645-36.137z" fill-rule="evenodd"></path></svg>